<?xml version="1.0" encoding="utf-8"?>
<!-- Generator: Adobe Illustrator 25.2.3, SVG Export Plug-In . SVG Version: 6.00 Build 0)  -->
<svg version="1.0" id="Слой_1" xmlns="http://www.w3.org/2000/svg" xmlns:xlink="http://www.w3.org/1999/xlink" x="0px" y="0px"
	 viewBox="0 0 132 132" enable-background="new 0 0 132 132" xml:space="preserve">
<g>
	<g>
		<path fill="#00582B" d="M66.44,1.5h-0.88C38.51,1.5,16.5,23.51,16.5,50.57v56.74h1.47c13.95,0,23.69-11.05,23.69-26.88V50.57
			c0-11.56,9.61-23.94,23.9-23.94h0.87c14.02,0,23.79,12.62,23.79,23.94v29.86c0,15.82,9.79,26.88,23.81,26.88h1.47V50.57
			C115.5,23.51,93.49,1.5,66.44,1.5z"/>
	</g>
	<path fill="#00582B" d="M66,114.38c-5.94,0-11.81-0.3-17.6-0.87c0.34,9.44,8.08,16.99,17.6,16.99c9.52,0,17.26-7.55,17.6-16.99
		C77.81,114.08,71.94,114.38,66,114.38z"/>
</g>
</svg>
